<svg xmlns="http://www.w3.org/2000/svg" width="1000" height="700" viewBox="0 0 1000 700" role="img" aria-labelledby="title desc">
<title id="title">GRPO reward component means</title>
<desc id="desc">Normalized structural and harmonic reward components averaged by GRPO step bucket.</desc>
<rect width="100%" height="100%" fill="#ffffff"/>
<text x="74" y="28" font-family="Arial, Helvetica, sans-serif" font-size="20" font-weight="700" fill="#20242c">GRPO reward components</text>
<text x="74" y="50" font-family="Arial, Helvetica, sans-serif" font-size="12" fill="#5c6470">Component means over 32-step buckets. Components are already normalized to [0, 1].</text>
<text x="74" y="70" font-family="Arial, Helvetica, sans-serif" font-size="15" font-weight="700" fill="#20242c">Structure and format rewards</text>
<line x1="74" y1="296.00" x2="730" y2="296.00" stroke="#d9dee7" stroke-width="1"/>
<text x="62" y="300.00" font-family="Arial, Helvetica, sans-serif" font-size="12" fill="#5c6470" text-anchor="end">0</text>
<line x1="74" y1="243.50" x2="730" y2="243.50" stroke="#d9dee7" stroke-width="1"/>
<text x="62" y="247.50" font-family="Arial, Helvetica, sans-serif" font-size="12" fill="#5c6470" text-anchor="end">0.25</text>
<line x1="74" y1="191.00" x2="730" y2="191.00" stroke="#d9dee7" stroke-width="1"/>
<text x="62" y="195.00" font-family="Arial, Helvetica, sans-serif" font-size="12" fill="#5c6470" text-anchor="end">0.5</text>
<line x1="74" y1="138.50" x2="730" y2="138.50" stroke="#d9dee7" stroke-width="1"/>
<text x="62" y="142.50" font-family="Arial, Helvetica, sans-serif" font-size="12" fill="#5c6470" text-anchor="end">0.75</text>
<line x1="74" y1="86.00" x2="730" y2="86.00" stroke="#d9dee7" stroke-width="1"/>
<text x="62" y="90.00" font-family="Arial, Helvetica, sans-serif" font-size="12" fill="#5c6470" text-anchor="end">1</text>
<line x1="74" y1="296" x2="730" y2="296" stroke="#252a33" stroke-width="1.4"/>
<line x1="74" y1="86" x2="74" y2="296" stroke="#252a33" stroke-width="1.4"/>
<polyline fill="none" stroke="#4e79a7" stroke-width="2.2" stroke-linejoin="round" stroke-linecap="round" points="74.00,90.92 167.71,95.84 261.43,94.20 355.14,87.64 448.86,95.84 542.57,90.92 636.29,92.56 730.00,94.20"><title>parse</title></polyline>
<polyline fill="none" stroke="#59a14f" stroke-width="2.2" stroke-linejoin="round" stroke-linecap="round" points="74.00,86.00 167.71,86.10 261.43,86.00 355.14,86.00 448.86,86.00 542.57,86.00 636.29,86.00 730.00,86.00"><title>countdown</title></polyline>
<polyline fill="none" stroke="#9c755f" stroke-width="2.2" stroke-linejoin="round" stroke-linecap="round" points="74.00,93.69 167.71,94.25 261.43,93.54 355.14,94.72 448.86,94.36 542.57,94.56 636.29,94.20 730.00,93.69"><title>line closure</title></polyline>
<polyline fill="none" stroke="#f28e2b" stroke-width="2.2" stroke-linejoin="round" stroke-linecap="round" points="74.00,91.18 167.71,91.79 261.43,91.38 355.14,91.79 448.86,92.10 542.57,91.23 636.29,92.56 730.00,92.10"><title>bar token</title></polyline>
<polyline fill="none" stroke="#e15759" stroke-width="2.2" stroke-linejoin="round" stroke-linecap="round" points="74.00,245.79 167.71,244.32 261.43,251.02 355.14,246.80 448.86,246.14 542.57,235.67 636.29,248.25 730.00,249.13"><title>meter alignment</title></polyline>
<polyline fill="none" stroke="#b07aa1" stroke-width="2.2" stroke-linejoin="round" stroke-linecap="round" points="74.00,191.66 167.71,195.23 261.43,195.96 355.14,197.01 448.86,192.83 542.57,189.30 636.29,197.01 730.00,195.49"><title>meter duration</title></polyline>
<polyline fill="none" stroke="#edc948" stroke-width="2.2" stroke-linejoin="round" stroke-linecap="round" points="74.00,268.16 167.71,264.57 261.43,270.47 355.14,270.83 448.86,270.62 542.57,259.96 636.29,272.57 730.00,267.65"><title>bar count</title></polyline>
<text x="74" y="360" font-family="Arial, Helvetica, sans-serif" font-size="15" font-weight="700" fill="#20242c">Harmony rewards</text>
<line x1="74" y1="586.00" x2="730" y2="586.00" stroke="#d9dee7" stroke-width="1"/>
<text x="62" y="590.00" font-family="Arial, Helvetica, sans-serif" font-size="12" fill="#5c6470" text-anchor="end">0</text>
<line x1="74" y1="533.50" x2="730" y2="533.50" stroke="#d9dee7" stroke-width="1"/>
<text x="62" y="537.50" font-family="Arial, Helvetica, sans-serif" font-size="12" fill="#5c6470" text-anchor="end">0.25</text>
<line x1="74" y1="481.00" x2="730" y2="481.00" stroke="#d9dee7" stroke-width="1"/>
<text x="62" y="485.00" font-family="Arial, Helvetica, sans-serif" font-size="12" fill="#5c6470" text-anchor="end">0.5</text>
<line x1="74" y1="428.50" x2="730" y2="428.50" stroke="#d9dee7" stroke-width="1"/>
<text x="62" y="432.50" font-family="Arial, Helvetica, sans-serif" font-size="12" fill="#5c6470" text-anchor="end">0.75</text>
<line x1="74" y1="376.00" x2="730" y2="376.00" stroke="#d9dee7" stroke-width="1"/>
<text x="62" y="380.00" font-family="Arial, Helvetica, sans-serif" font-size="12" fill="#5c6470" text-anchor="end">1</text>
<line x1="74" y1="586" x2="730" y2="586" stroke="#252a33" stroke-width="1.4"/>
<line x1="74" y1="376" x2="74" y2="586" stroke="#252a33" stroke-width="1.4"/>
<polyline fill="none" stroke="#76b7b2" stroke-width="2.2" stroke-linejoin="round" stroke-linecap="round" points="74.00,555.95 167.71,556.10 261.43,557.65 355.14,556.83 448.86,556.47 542.57,557.29 636.29,555.34 730.00,556.62"><title>root</title></polyline>
<polyline fill="none" stroke="#ff9da7" stroke-width="2.2" stroke-linejoin="round" stroke-linecap="round" points="74.00,544.82 167.71,545.49 261.43,544.52 355.14,545.24 448.86,544.63 542.57,546.52 636.29,547.04 730.00,544.93"><title>bass pc</title></polyline>
<polyline fill="none" stroke="#af7aa1" stroke-width="2.2" stroke-linejoin="round" stroke-linecap="round" points="74.00,556.47 167.71,558.11 261.43,562.21 355.14,560.98 448.86,558.52 542.57,562.21 636.29,555.24 730.00,558.11"><title>cadence root</title></polyline>
<polyline fill="none" stroke="#8cd17d" stroke-width="2.2" stroke-linejoin="round" stroke-linecap="round" points="74.00,505.61 167.71,503.97 261.43,503.97 355.14,509.30 448.86,506.84 542.57,508.48 636.29,509.71 730.00,505.20"><title>cadence bass</title></polyline>
<text x="74.00" y="610" font-family="Arial, Helvetica, sans-serif" font-size="11" fill="#5c6470" text-anchor="middle">001-032</text>
<text x="167.71" y="610" font-family="Arial, Helvetica, sans-serif" font-size="11" fill="#5c6470" text-anchor="middle">033-064</text>
<text x="261.43" y="610" font-family="Arial, Helvetica, sans-serif" font-size="11" fill="#5c6470" text-anchor="middle">065-096</text>
<text x="355.14" y="610" font-family="Arial, Helvetica, sans-serif" font-size="11" fill="#5c6470" text-anchor="middle">097-128</text>
<text x="448.86" y="610" font-family="Arial, Helvetica, sans-serif" font-size="11" fill="#5c6470" text-anchor="middle">129-160</text>
<text x="542.57" y="610" font-family="Arial, Helvetica, sans-serif" font-size="11" fill="#5c6470" text-anchor="middle">161-192</text>
<text x="636.29" y="610" font-family="Arial, Helvetica, sans-serif" font-size="11" fill="#5c6470" text-anchor="middle">193-224</text>
<text x="730.00" y="610" font-family="Arial, Helvetica, sans-serif" font-size="11" fill="#5c6470" text-anchor="middle">225-256</text>
<text x="402.00" y="684" font-family="Arial, Helvetica, sans-serif" font-size="13" fill="#20242c" text-anchor="middle">GRPO step bucket</text>
<text x="760" y="88" font-family="Arial, Helvetica, sans-serif" font-size="13" font-weight="700" fill="#20242c">Components</text>
<line x1="760" y1="108" x2="784" y2="108" stroke="#4e79a7" stroke-width="2.5" stroke-linecap="round"/>
<text x="794" y="112" font-family="Arial, Helvetica, sans-serif" font-size="11" fill="#20242c">parse</text>
<line x1="760" y1="130" x2="784" y2="130" stroke="#59a14f" stroke-width="2.5" stroke-linecap="round"/>
<text x="794" y="134" font-family="Arial, Helvetica, sans-serif" font-size="11" fill="#20242c">countdown</text>
<line x1="760" y1="152" x2="784" y2="152" stroke="#9c755f" stroke-width="2.5" stroke-linecap="round"/>
<text x="794" y="156" font-family="Arial, Helvetica, sans-serif" font-size="11" fill="#20242c">line closure</text>
<line x1="760" y1="174" x2="784" y2="174" stroke="#f28e2b" stroke-width="2.5" stroke-linecap="round"/>
<text x="794" y="178" font-family="Arial, Helvetica, sans-serif" font-size="11" fill="#20242c">bar token</text>
<line x1="760" y1="196" x2="784" y2="196" stroke="#e15759" stroke-width="2.5" stroke-linecap="round"/>
<text x="794" y="200" font-family="Arial, Helvetica, sans-serif" font-size="11" fill="#20242c">meter alignment</text>
<line x1="760" y1="218" x2="784" y2="218" stroke="#b07aa1" stroke-width="2.5" stroke-linecap="round"/>
<text x="794" y="222" font-family="Arial, Helvetica, sans-serif" font-size="11" fill="#20242c">meter duration</text>
<line x1="760" y1="240" x2="784" y2="240" stroke="#edc948" stroke-width="2.5" stroke-linecap="round"/>
<text x="794" y="244" font-family="Arial, Helvetica, sans-serif" font-size="11" fill="#20242c">bar count</text>
<line x1="760" y1="262" x2="784" y2="262" stroke="#76b7b2" stroke-width="2.5" stroke-linecap="round"/>
<text x="794" y="266" font-family="Arial, Helvetica, sans-serif" font-size="11" fill="#20242c">root</text>
<line x1="760" y1="284" x2="784" y2="284" stroke="#ff9da7" stroke-width="2.5" stroke-linecap="round"/>
<text x="794" y="288" font-family="Arial, Helvetica, sans-serif" font-size="11" fill="#20242c">bass pc</text>
<line x1="760" y1="306" x2="784" y2="306" stroke="#af7aa1" stroke-width="2.5" stroke-linecap="round"/>
<text x="794" y="310" font-family="Arial, Helvetica, sans-serif" font-size="11" fill="#20242c">cadence root</text>
<line x1="760" y1="328" x2="784" y2="328" stroke="#8cd17d" stroke-width="2.5" stroke-linecap="round"/>
<text x="794" y="332" font-family="Arial, Helvetica, sans-serif" font-size="11" fill="#20242c">cadence bass</text>
</svg>
